<!DOCTYPE svg PUBLIC "-//W3C//DTD SVG 1.1//EN" "http://www.w3.org/Graphics/SVG/1.1/DTD/svg11.dtd">
<!-- Uploaded to: SVG Repo, www.svgrepo.com, Transformed by: SVG Repo Mixer Tools -->
<svg version="1.1" id="Layer_1" xmlns="http://www.w3.org/2000/svg" xmlns:xlink="http://www.w3.org/1999/xlink" viewBox="0 0 512.001 512.001" xml:space="preserve" width="800px" height="800px" fill="#182d49">
<g id="SVGRepo_bgCarrier" stroke-width="0"/>
<g id="SVGRepo_tracerCarrier" stroke-linecap="round" stroke-linejoin="round"/>
<g id="SVGRepo_iconCarrier"> <polygon style="fill:#FFFFFF;" points="210.833,435.224 131.681,472.368 127.016,385.576 41.2,376.248 75.409,303.4 7.16,252.376 73.752,212.224 40.937,128.112 128.601,123.432 133.265,35.12 210.857,75.336 259.344,6.736 310.809,73.592 385.337,37.984 393.12,123.32 481.4,131.04 439.625,203.536 505.833,256.952 444.785,311.568 475.536,382.104 389.872,383.656 383.633,470.72 310.617,435.104 263.8,505.112 "/> <path style="fill:#e3a52c;" d="M259.472,13.472l46.184,60L309.6,78.6l5.84-2.792l66.4-31.728l6.96,76.28l0.608,6.664l6.664,0.584 l78.704,6.88l-36.936,64.096l-3.416,5.928l5.32,4.296l59.872,48.32l-55.384,49.552l-4.312,3.856l2.312,5.304l27.2,62.4l-76,1.376 l-7.312,0.136l-0.52,7.296l-5.552,77.512l-64.56-31.496L309.214,430l-3.88,5.808l-41.76,62.44l-47.576-62.856l-3.912-5.16 l-5.864,2.752l-70.848,33.24l-4.16-77.464l-0.368-6.792l-6.76-0.736l-76.888-8.36l30.4-64.8l2.768-5.904l-5.168-3.928l-60.88-45.512 l58.616-35.336l5.776-3.48l-2.448-6.28l-29.598-75.824l78.552-4.192l7.2-0.384l0.376-7.2l4.144-78.528l68.984,35.776l6.192,3.2 l4-5.696l43.344-61.328 M259.2,0l-49.6,70.184l-80-41.472l-4.8,90.912l-89.6,4.8l33.6,86.12L0,252l70.4,52.632l-35.2,74.984l88,9.6 l4.8,89.288l81.6-38.28l54.4,71.776l48-71.776l75.2,36.688l6.4-89.32l88-1.6l-32-73.368l62.4-55.824l-67.2-54.232l43.2-74.968 l-91.2-8l-8-87.728L312,68.584L259.2,0z"/> <rect x="131.211" y="341.685" style="fill:#e3a52c;" width="274.483" height="8"/> <g> <polygon style="fill:#182d49;" points="223.52,194.952 207.105,146.368 164.592,146.368 164.592,133.384 216.417,133.384 235.816,190.792 "/> <circle style="fill:#182d49;" cx="317.71" cy="316.645" r="25"/> <circle style="fill:#182d49;" cx="242.311" cy="316.645" r="25"/> </g> <polygon style="fill:#e3a52c;" points="192.025,184.048 372.313,184.048 337.944,280.464 222.048,280.464 "/> </g>
</svg>